<svg preserveAspectRatio="none" width="100%" height="100%" overflow="visible" style="display: block;" viewBox="0 0 21 21" fill="none" xmlns="http://www.w3.org/2000/svg">
<g id="Frame">
<path id="Vector" d="M15.75 12.25V16.4789C15.7501 16.613 15.7238 16.7458 15.6725 16.8698C15.6212 16.9937 15.546 17.1063 15.4512 17.2012C15.3563 17.296 15.2437 17.3712 15.1198 17.4225C14.9958 17.4738 14.863 17.5001 14.7289 17.5H4.52113C4.38703 17.5 4.25425 17.4736 4.13036 17.4223C4.00647 17.371 3.8939 17.2957 3.79908 17.2009C3.70426 17.1061 3.62905 16.9935 3.57773 16.8696C3.52641 16.7458 3.5 16.613 3.5 16.4789V6.27112C3.49989 6.137 3.52622 6.00416 3.57749 5.88022C3.62877 5.75628 3.70398 5.64367 3.79882 5.54882C3.89367 5.45398 4.00628 5.37877 4.13022 5.32749C4.25416 5.27622 4.387 5.24988 4.52113 5.25H8.56188M12.453 3.5H17.5V8.547M10.5971 10.4029L17.4029 3.59713" stroke="var(--stroke-0, #0085FF)" stroke-width="1.75" stroke-linecap="round" stroke-linejoin="round"/>
</g>
</svg>
