<svg width="48" height="48" viewBox="0 0 48 48" fill="none" xmlns="http://www.w3.org/2000/svg">
<path d="M0 24C0 10.7452 10.7452 0 24 0C37.2548 0 48 10.7452 48 24C48 37.2548 37.2548 48 24 48C10.7452 48 0 37.2548 0 24Z" fill="#0085FF"/>
<path d="M29.8333 23.1667H18.1667C17.2462 23.1667 16.5 23.9129 16.5 24.8334V30.6667C16.5 31.5872 17.2462 32.3334 18.1667 32.3334H29.8333C30.7538 32.3334 31.5 31.5872 31.5 30.6667V24.8334C31.5 23.9129 30.7538 23.1667 29.8333 23.1667Z" stroke="white" stroke-width="1.66667" stroke-linecap="round" stroke-linejoin="round"/>
<path d="M19.832 23.1667V19.8334C19.832 18.7283 20.271 17.6685 21.0524 16.8871C21.8338 16.1057 22.8936 15.6667 23.9987 15.6667C25.1038 15.6667 26.1636 16.1057 26.945 16.8871C27.7264 17.6685 28.1654 18.7283 28.1654 19.8334V23.1667" stroke="white" stroke-width="1.66667" stroke-linecap="round" stroke-linejoin="round"/>
</svg>
