<svg width="72" height="72" viewBox="0 0 72 72" fill="none" xmlns="http://www.w3.org/2000/svg">
<g filter="url(#filter0_dd_1888_1811)">
<path d="M12 26C12 12.7452 22.7452 2 36 2V2C49.2548 2 60 12.7452 60 26V26C60 39.2548 49.2548 50 36 50V50C22.7452 50 12 39.2548 12 26V26Z" fill="#0085FF" shape-rendering="crispEdges"/>
<path d="M41.8333 25.1667H30.1667C29.2462 25.1667 28.5 25.9129 28.5 26.8334V32.6667C28.5 33.5872 29.2462 34.3334 30.1667 34.3334H41.8333C42.7538 34.3334 43.5 33.5872 43.5 32.6667V26.8334C43.5 25.9129 42.7538 25.1667 41.8333 25.1667Z" stroke="white" stroke-width="1.66667" stroke-linecap="round" stroke-linejoin="round"/>
<path d="M31.832 25.1667V21.8334C31.832 20.7283 32.271 19.6685 33.0524 18.8871C33.8338 18.1057 34.8936 17.6667 35.9987 17.6667C37.1038 17.6667 38.1636 18.1057 38.945 18.8871C39.7264 19.6685 40.1654 20.7283 40.1654 21.8334V25.1667" stroke="white" stroke-width="1.66667" stroke-linecap="round" stroke-linejoin="round"/>
</g>
<defs>
<filter id="filter0_dd_1888_1811" x="0" y="0" width="72" height="72" filterUnits="userSpaceOnUse" color-interpolation-filters="sRGB">
<feFlood flood-opacity="0" result="BackgroundImageFix"/>
<feColorMatrix in="SourceAlpha" type="matrix" values="0 0 0 0 0 0 0 0 0 0 0 0 0 0 0 0 0 0 127 0" result="hardAlpha"/>
<feMorphology radius="4" operator="erode" in="SourceAlpha" result="effect1_dropShadow_1888_1811"/>
<feOffset dy="4"/>
<feGaussianBlur stdDeviation="3"/>
<feComposite in2="hardAlpha" operator="out"/>
<feColorMatrix type="matrix" values="0 0 0 0 0 0 0 0 0 0 0 0 0 0 0 0 0 0 0.1 0"/>
<feBlend mode="normal" in2="BackgroundImageFix" result="effect1_dropShadow_1888_1811"/>
<feColorMatrix in="SourceAlpha" type="matrix" values="0 0 0 0 0 0 0 0 0 0 0 0 0 0 0 0 0 0 127 0" result="hardAlpha"/>
<feMorphology radius="3" operator="erode" in="SourceAlpha" result="effect2_dropShadow_1888_1811"/>
<feOffset dy="10"/>
<feGaussianBlur stdDeviation="7.5"/>
<feComposite in2="hardAlpha" operator="out"/>
<feColorMatrix type="matrix" values="0 0 0 0 0 0 0 0 0 0 0 0 0 0 0 0 0 0 0.1 0"/>
<feBlend mode="normal" in2="effect1_dropShadow_1888_1811" result="effect2_dropShadow_1888_1811"/>
<feBlend mode="normal" in="SourceGraphic" in2="effect2_dropShadow_1888_1811" result="shape"/>
</filter>
</defs>
</svg>
