<svg width="65" height="65" viewBox="0 0 65 65" fill="none" xmlns="http://www.w3.org/2000/svg">
<circle cx="32.5" cy="32.5" r="32.5" fill="#0085FF"/>
<path d="M32.9985 39.8C33.7349 39.8 34.3318 39.1732 34.3318 38.4C34.3318 37.6268 33.7349 37 32.9985 37C32.2621 37 31.6652 37.6268 31.6652 38.4C31.6652 39.1732 32.2621 39.8 32.9985 39.8Z" stroke="#F3FBFF" stroke-width="2.8" stroke-linecap="round" stroke-linejoin="round"/>
<path d="M42.3363 30H23.6697C22.1969 30 21.003 31.2536 21.003 32.8V44C21.003 45.5464 22.1969 46.8 23.6697 46.8H42.3363C43.8091 46.8 45.003 45.5464 45.003 44V32.8C45.003 31.2536 43.8091 30 42.3363 30Z" stroke="#F3FBFF" stroke-width="2.8" stroke-linecap="round" stroke-linejoin="round"/>
<path d="M26.3341 30V25.8C26.3341 23.9435 27.0365 22.1631 28.2867 20.8503C29.537 19.5375 31.2327 18.8 33.0008 18.8C34.7689 18.8 36.4646 19.5375 37.7148 20.8503C38.9651 22.1631 39.6674 23.9435 39.6674 25.8V30" stroke="#F3FBFF" stroke-width="2.8" stroke-linecap="round" stroke-linejoin="round"/>
</svg>
