<svg width="172" height="29" viewBox="0 0 172 29" fill="none" xmlns="http://www.w3.org/2000/svg">
<path d="M12.9802 15.004C14.3589 15.3266 15.4882 16.016 16.3682 17.072C17.2482 18.0986 17.6882 19.3453 17.6882 20.812C17.6882 22.9826 17.0135 24.684 15.6642 25.916C14.3149 27.1186 12.3055 27.72 9.63619 27.72H0.484188C0.161521 27.72 0.000187665 27.5586 0.000187665 27.236V3.78397C0.000187665 3.43197 0.161521 3.25597 0.484188 3.25597H8.88819C11.4109 3.25597 13.3469 3.8133 14.6962 4.92797C16.0749 6.04264 16.7642 7.5973 16.7642 9.59197C16.7642 11.1466 16.3682 12.3346 15.5762 13.156C14.7842 13.9773 13.9189 14.5933 12.9802 15.004ZM4.31219 13.112H9.28419C10.4282 13.112 11.2349 12.804 11.7042 12.188C12.2029 11.572 12.4522 10.8386 12.4522 9.98797C12.4522 9.10797 12.1735 8.40397 11.6162 7.87597C11.0882 7.34797 10.2375 7.08397 9.06419 7.08397H4.31219V13.112ZM4.31219 23.936H9.15219C9.70952 23.936 10.2962 23.8773 10.9122 23.76C11.5575 23.6133 12.1002 23.2906 12.5402 22.792C13.0095 22.2933 13.2442 21.4866 13.2442 20.372C13.2442 19.3746 12.9215 18.524 12.2762 17.82C11.6309 17.116 10.6042 16.764 9.19619 16.764H4.31219V23.936ZM29.9786 25.652C29.392 26.444 28.644 27.06 27.7346 27.5C26.8253 27.9106 25.8573 28.116 24.8306 28.116C23.188 28.116 21.7946 27.72 20.6506 26.928C19.536 26.136 18.6853 25.08 18.0986 23.76C17.5413 22.44 17.2626 20.988 17.2626 19.404C17.2626 17.7613 17.5706 16.2946 18.1866 15.004C18.8026 13.684 19.6826 12.6426 20.8266 11.88C22 11.1173 23.364 10.736 24.9186 10.736C26.2093 10.736 27.2946 10.9706 28.1746 11.44C29.084 11.9093 29.8026 12.4666 30.3306 13.112C30.5653 12.4373 30.9466 11.9533 31.4746 11.66C32.032 11.3373 32.692 11.176 33.4546 11.176H33.6746C33.9973 11.176 34.1586 11.352 34.1586 11.704V27.236C34.1586 27.5586 33.9973 27.72 33.6746 27.72H30.4186C30.1253 27.72 29.9786 27.5586 29.9786 27.236V25.652ZM25.7546 24.156C26.312 24.156 26.9133 24.0386 27.5586 23.804C28.2333 23.54 28.8053 23.0706 29.2746 22.396C29.744 21.7213 29.9786 20.724 29.9786 19.404C29.9786 18.084 29.744 17.1013 29.2746 16.456C28.8053 15.7813 28.248 15.3413 27.6026 15.136C26.9573 14.9013 26.356 14.784 25.7986 14.784C25.212 14.784 24.5813 14.916 23.9066 15.18C23.2613 15.444 22.704 15.9133 22.2346 16.588C21.7946 17.2626 21.5746 18.2013 21.5746 19.404C21.5746 20.6653 21.8093 21.648 22.2786 22.352C22.7773 23.0266 23.3493 23.496 23.9946 23.76C24.64 24.024 25.2266 24.156 25.7546 24.156ZM39.1698 13.596C39.6685 12.6573 40.2698 12.0266 40.9738 11.704C41.6778 11.352 42.6311 11.176 43.8338 11.176H44.3178C44.6111 11.176 44.7578 11.352 44.7578 11.704V14.696C44.7578 15.048 44.6111 15.224 44.3178 15.224H43.1738C41.5605 15.224 40.5045 15.6346 40.0058 16.456C39.5365 17.248 39.3018 18.4213 39.3018 19.976V27.236C39.3018 27.5586 39.1551 27.72 38.8618 27.72H35.5618C35.2978 27.72 35.1658 27.5586 35.1658 27.236V11.704C35.1658 11.352 35.2978 11.176 35.5618 11.176H35.7818C37.6885 11.176 38.8178 11.9826 39.1698 13.596ZM48.9406 25.696V27.236C48.9406 27.5586 48.7939 27.72 48.5006 27.72H45.2006C44.9366 27.72 44.8046 27.5586 44.8046 27.236V3.78397C44.8046 3.43197 44.9366 3.25597 45.2006 3.25597H45.4206C46.5646 3.25597 47.4299 3.5493 48.0166 4.13597C48.6326 4.6933 48.9406 5.63197 48.9406 6.95197V13.288C49.4392 12.5546 50.1139 11.9533 50.9646 11.484C51.8446 10.9853 52.9006 10.736 54.1326 10.736C56.4499 10.736 58.2832 11.528 59.6326 13.112C60.9819 14.6666 61.6566 16.764 61.6566 19.404C61.6566 20.988 61.3632 22.44 60.7766 23.76C60.2192 25.08 59.3832 26.136 58.2686 26.928C57.1539 27.72 55.7752 28.116 54.1326 28.116C51.9032 28.116 50.1726 27.3093 48.9406 25.696ZM53.1206 24.156C53.6779 24.156 54.2792 24.024 54.9246 23.76C55.5699 23.496 56.1272 23.0266 56.5966 22.352C57.0659 21.648 57.3006 20.6653 57.3006 19.404C57.3006 18.172 57.0659 17.2333 56.5966 16.588C56.1566 15.9133 55.6139 15.444 54.9686 15.18C54.3232 14.916 53.7072 14.784 53.1206 14.784C52.5926 14.784 52.0059 14.9013 51.3606 15.136C50.7152 15.3413 50.1432 15.7813 49.6446 16.456C49.1752 17.1013 48.9406 18.084 48.9406 19.404C48.9406 20.6946 49.1752 21.692 49.6446 22.396C50.1432 23.0706 50.7152 23.54 51.3606 23.804C52.0352 24.0386 52.6219 24.156 53.1206 24.156ZM74.1488 25.652C73.5621 26.444 72.8141 27.06 71.9048 27.5C70.9954 27.9106 70.0274 28.116 69.0008 28.116C67.3581 28.116 65.9648 27.72 64.8208 26.928C63.7061 26.136 62.8554 25.08 62.2688 23.76C61.7114 22.44 61.4328 20.988 61.4328 19.404C61.4328 17.7613 61.7408 16.2946 62.3568 15.004C62.9728 13.684 63.8528 12.6426 64.9968 11.88C66.1701 11.1173 67.5341 10.736 69.0888 10.736C70.3794 10.736 71.4648 10.9706 72.3448 11.44C73.2541 11.9093 73.9728 12.4666 74.5008 13.112C74.7354 12.4373 75.1168 11.9533 75.6448 11.66C76.2021 11.3373 76.8621 11.176 77.6248 11.176H77.8448C78.1674 11.176 78.3288 11.352 78.3288 11.704V27.236C78.3288 27.5586 78.1674 27.72 77.8448 27.72H74.5888C74.2954 27.72 74.1488 27.5586 74.1488 27.236V25.652ZM69.9248 24.156C70.4821 24.156 71.0834 24.0386 71.7288 23.804C72.4034 23.54 72.9754 23.0706 73.4448 22.396C73.9141 21.7213 74.1488 20.724 74.1488 19.404C74.1488 18.084 73.9141 17.1013 73.4448 16.456C72.9754 15.7813 72.4181 15.3413 71.7728 15.136C71.1274 14.9013 70.5261 14.784 69.9688 14.784C69.3821 14.784 68.7514 14.916 68.0768 15.18C67.4314 15.444 66.8741 15.9133 66.4048 16.588C65.9648 17.2626 65.7448 18.2013 65.7448 19.404C65.7448 20.6653 65.9794 21.648 66.4488 22.352C66.9474 23.0266 67.5194 23.496 68.1648 23.76C68.8101 24.024 69.3968 24.156 69.9248 24.156ZM83.34 13.596C83.8386 12.6573 84.44 12.0266 85.144 11.704C85.848 11.352 86.8013 11.176 88.004 11.176H88.488C88.7813 11.176 88.928 11.352 88.928 11.704V14.696C88.928 15.048 88.7813 15.224 88.488 15.224H87.344C85.7306 15.224 84.6746 15.6346 84.176 16.456C83.7066 17.248 83.472 18.4213 83.472 19.976V27.236C83.472 27.5586 83.3253 27.72 83.032 27.72H79.732C79.468 27.72 79.336 27.5586 79.336 27.236V11.704C79.336 11.352 79.468 11.176 79.732 11.176H79.952C81.8586 11.176 82.988 11.9826 83.34 13.596ZM100.731 25.652C100.144 26.444 99.3963 27.06 98.487 27.5C97.5776 27.9106 96.6096 28.116 95.583 28.116C93.9403 28.116 92.547 27.72 91.403 26.928C90.2883 26.136 89.4376 25.08 88.851 23.76C88.2936 22.44 88.015 20.988 88.015 19.404C88.015 17.7613 88.323 16.2946 88.939 15.004C89.555 13.684 90.435 12.6426 91.579 11.88C92.7523 11.1173 94.1163 10.736 95.671 10.736C96.9616 10.736 98.047 10.9706 98.927 11.44C99.8363 11.9093 100.555 12.4666 101.083 13.112C101.318 12.4373 101.699 11.9533 102.227 11.66C102.784 11.3373 103.444 11.176 104.207 11.176H104.427C104.75 11.176 104.911 11.352 104.911 11.704V27.236C104.911 27.5586 104.75 27.72 104.427 27.72H101.171C100.878 27.72 100.731 27.5586 100.731 27.236V25.652ZM96.507 24.156C97.0643 24.156 97.6656 24.0386 98.311 23.804C98.9856 23.54 99.5576 23.0706 100.027 22.396C100.496 21.7213 100.731 20.724 100.731 19.404C100.731 18.084 100.496 17.1013 100.027 16.456C99.5576 15.7813 99.0003 15.3413 98.355 15.136C97.7096 14.9013 97.1083 14.784 96.551 14.784C95.9643 14.784 95.3336 14.916 94.659 15.18C94.0136 15.444 93.4563 15.9133 92.987 16.588C92.547 17.2626 92.327 18.2013 92.327 19.404C92.327 20.6653 92.5616 21.648 93.031 22.352C93.5296 23.0266 94.1016 23.496 94.747 23.76C95.3923 24.024 95.979 24.156 96.507 24.156Z" fill="black"/>
<path d="M110.67 19.228V27.236C110.67 27.5586 110.509 27.72 110.186 27.72H106.842C106.519 27.72 106.358 27.5586 106.358 27.236V3.78397C106.358 3.43197 106.519 3.25597 106.842 3.25597H115.29C118.37 3.25597 120.629 3.9893 122.066 5.45597C123.503 6.8933 124.222 8.7853 124.222 11.132C124.222 12.98 123.767 14.5493 122.858 15.84C121.978 17.1306 120.79 18.0693 119.294 18.656L124.398 27.236C124.457 27.3533 124.457 27.4706 124.398 27.588C124.369 27.676 124.281 27.72 124.134 27.72H120.438C119.969 27.72 119.631 27.544 119.426 27.192L115.026 19.228H110.67ZM110.67 15.268H115.642C116.815 15.268 117.827 14.9746 118.678 14.388C119.529 13.772 119.954 12.6866 119.954 11.132C119.954 9.87064 119.558 8.9173 118.766 8.27197C117.974 7.62664 116.947 7.30397 115.686 7.30397H110.67V15.268ZM132.113 28.16C129.531 28.16 127.463 27.368 125.909 25.784C124.383 24.2 123.621 22.088 123.621 19.448C123.621 16.8373 124.383 14.7546 125.909 13.2C127.434 11.616 129.487 10.824 132.069 10.824C134.65 10.824 136.703 11.616 138.229 13.2C139.754 14.7546 140.517 16.8373 140.517 19.448C140.517 22.0586 139.769 24.1706 138.273 25.784C136.777 27.368 134.723 28.16 132.113 28.16ZM132.069 24.156C133.183 24.156 134.151 23.804 134.973 23.1C135.794 22.3666 136.205 21.1786 136.205 19.536C136.205 17.8933 135.794 16.6906 134.973 15.928C134.151 15.1653 133.183 14.784 132.069 14.784C130.925 14.784 129.942 15.1653 129.121 15.928C128.329 16.6613 127.933 17.8493 127.933 19.492C127.933 21.1346 128.329 22.3226 129.121 23.056C129.942 23.7893 130.925 24.156 132.069 24.156ZM153.108 13.068V3.78397C153.108 3.43197 153.269 3.25597 153.592 3.25597H153.812C154.956 3.25597 155.821 3.5493 156.408 4.13597C157.024 4.6933 157.332 5.63197 157.332 6.95197V27.236C157.332 27.5586 157.185 27.72 156.892 27.72H153.592C153.269 27.72 153.108 27.5586 153.108 27.236V25.652C151.876 27.2946 150.16 28.116 147.96 28.116C146.317 28.116 144.924 27.72 143.78 26.928C142.665 26.136 141.815 25.08 141.228 23.76C140.671 22.44 140.392 20.988 140.392 19.404C140.392 17.7613 140.7 16.2946 141.316 15.004C141.932 13.684 142.827 12.6426 144 11.88C145.173 11.1173 146.581 10.736 148.224 10.736C149.339 10.736 150.307 10.9413 151.128 11.352C151.979 11.7626 152.639 12.3346 153.108 13.068ZM148.928 24.156C149.485 24.156 150.087 24.0386 150.732 23.804C151.377 23.54 151.935 23.0706 152.404 22.396C152.873 21.7213 153.108 20.724 153.108 19.404C153.108 18.084 152.873 17.1013 152.404 16.456C151.935 15.7813 151.377 15.3413 150.732 15.136C150.087 14.9013 149.5 14.784 148.972 14.784C148.385 14.784 147.755 14.916 147.08 15.18C146.405 15.444 145.833 15.9133 145.364 16.588C144.924 17.2333 144.704 18.172 144.704 19.404C144.704 20.6653 144.939 21.648 145.408 22.352C145.907 23.0266 146.479 23.496 147.124 23.76C147.799 24.024 148.4 24.156 148.928 24.156ZM164.543 6.51197H164.059C164.059 4.31197 162.343 3.91597 162.343 2.24397C162.343 1.27597 162.695 -3.17097e-05 164.279 -3.17097e-05C165.907 -3.17097e-05 166.259 1.27597 166.259 2.24397C166.259 3.95997 164.543 4.31197 164.543 6.51197ZM164.059 7.30397C162.167 8.40397 162.695 10.076 161.199 10.956C160.407 11.396 159.087 11.748 158.251 10.34C157.503 8.97597 158.427 8.00797 159.219 7.56797C160.671 6.68797 161.903 8.00797 163.751 6.90797C161.903 5.80797 160.671 7.12797 159.219 6.24797C158.427 5.80797 157.503 4.83997 158.251 3.47597C159.087 2.06797 160.407 2.41997 161.199 2.85997C162.695 3.73997 162.167 5.41197 164.059 6.51197H164.543C166.435 5.41197 165.907 3.73997 167.447 2.85997C168.239 2.41997 169.559 2.06797 170.395 3.47597C171.143 4.83997 170.219 5.80797 169.383 6.24797C167.975 7.12797 166.743 5.80797 164.851 6.90797C166.743 8.00797 167.975 6.68797 169.383 7.56797C170.219 8.00797 171.143 8.97597 170.395 10.34C169.559 11.748 168.239 11.396 167.447 10.956C165.907 10.076 166.435 8.40397 164.543 7.30397C164.543 9.50397 166.259 9.85597 166.259 11.572C166.259 12.54 165.907 13.816 164.279 13.816C162.695 13.816 162.343 12.54 162.343 11.572C162.343 9.89997 164.059 9.50397 164.059 7.30397Z" fill="#0085FF"/>
</svg>
