<svg preserveAspectRatio="none" width="100%" height="100%" overflow="visible" style="display: block;" viewBox="0 0 236 55" fill="none" xmlns="http://www.w3.org/2000/svg">
<g id="printed-web-logo-1 2">
<path id="Vector" d="M30.2008 17.4C30.2008 15.4 28.6008 13.7 26.5008 13.7H7.00078C6.90078 13.7 6.80078 13.8 6.80078 13.9V20.7C6.80078 20.8 6.90078 20.9 7.00078 20.9H26.5008C28.5008 21 30.2008 19.4 30.2008 17.4Z" fill="var(--fill-0, #FAD6EF)"/>
<path id="Vector_2" d="M29.0992 14.6C27.6992 13.2 25.0992 13.4 23.3992 15.2L6.89922 31.6C6.79922 31.7 6.79922 31.9 6.89922 32L11.6992 36.8C11.7992 36.9 11.9992 36.9 12.0992 36.8L28.5992 20.3C30.2992 18.6 30.4992 16 29.0992 14.6Z" fill="var(--fill-0, #F5ADE0)"/>
<g id="Group">
<path id="Vector_3" d="M48.0008 19.2C46.0008 19.1 44.0008 19.5 42.4008 20.5H42.3008V19.8C42.3008 19.7 42.2008 19.6 42.1008 19.6H37.5008C37.4008 19.6 37.3008 19.7 37.3008 19.8V46.7C37.3008 46.8 37.4008 46.9 37.5008 46.9H42.1008C42.2008 46.9 42.3008 46.8 42.3008 46.7V37.5C42.3008 37.5 42.3008 37.4 42.4008 37.5C43.8008 38.3 45.5008 38.8 47.3008 38.8C52.9008 38.8 57.5008 34 57.1008 28.3C56.7008 23.4 52.8008 19.6 48.0008 19.2ZM52.0008 29.3C51.8008 31.7 49.9008 33.6 47.5008 33.8C44.6008 34 42.2008 31.6 42.4008 28.7C42.6008 26.3 44.5008 24.4 46.9008 24.2C49.8008 24 52.2008 26.4 52.0008 29.3Z" fill="var(--fill-0, white)"/>
<path id="Vector_4" d="M69.4016 19.5C68.5016 19.5 67.5016 19.5 66.6016 19.8C65.7016 20.1 64.9016 20.8 64.2016 21.3H64.1016V20.4C64.1016 20.4 64.1016 19.7 64.1016 19.6C64.1016 19.5 64.0016 19.5 63.9016 19.5H59.3016C59.2016 19.5 59.1016 19.6 59.1016 19.7V38C59.1016 38.2 59.3016 38.4 59.5016 38.4H64.0016C64.1016 38.4 64.2016 38.3 64.2016 38.2V26.5C64.2016 26.3 64.3016 26.2 64.4016 26.1C65.9016 25.1 67.8016 24.1 69.6016 24.4C69.7016 24.4 69.8016 24.4 69.8016 24.3V19.8C69.6016 19.6 69.5016 19.5 69.4016 19.5Z" fill="var(--fill-0, white)"/>
<path id="Vector_5" d="M85.2031 24.2999V19.7999C85.2031 19.6999 85.1031 19.5999 85.0031 19.5999H80.4031C80.3031 19.5999 80.2031 19.6999 80.2031 19.7999V38.1999C80.2031 38.2999 80.3031 38.3999 80.4031 38.3999H85.0031C85.1031 38.3999 85.2031 38.2999 85.2031 38.1999V31.1999C85.2031 30.9999 85.3031 30.6999 85.5031 30.5999L91.0031 24.9999C91.2031 24.7999 91.5031 24.7999 91.7031 24.8999C91.8031 24.9999 91.9031 25.0999 91.9031 25.2999C91.9031 27.2999 91.9031 36.5999 91.9031 38.1999C91.9031 38.2999 92.0031 38.3999 92.1031 38.3999H96.8031C96.9031 38.3999 97.0031 38.2999 97.0031 38.1999V37.9999V28.0999C97.0031 24.9999 97.4031 19.2999 92.8031 19.2999C90.3031 19.2999 88.5031 21.0999 86.2031 23.3999C86.1031 23.4999 85.5031 24.0999 85.2031 24.2999Z" fill="var(--fill-0, white)"/>
<path id="Vector_6" d="M216.202 31.2C216.202 31 216.302 30.7 216.502 30.6L222.102 25C222.302 24.8 222.602 24.8 222.802 24.9C222.902 25 223.002 25.0999 223.002 25.2999C223.002 27.2999 223.002 36.6 223.002 38.2C223.002 38.3 223.102 38.4 223.202 38.4H227.802C227.902 38.4 228.002 38.3 228.002 38.2C228.002 38.1 228.002 37 228.002 35.7C228.002 32.8 228.002 28 228.002 28C228.002 24.2 228.502 19.2 223.902 19.2C222.002 19.2 220.202 20 217.302 23.1C217.102 23.3 216.902 23.5 216.702 23.7C216.602 23.8 216.302 24.1 216.202 24.2C216.002 24.2 216.002 23.6 216.002 23.5C215.802 22.6 215.402 21.1 214.702 20.5C213.802 19.6 212.802 19.2999 211.602 19.2999C210.202 19.2999 208.902 19.8 208.002 20.7C207.202 21.5 206.402 22.3 205.602 23.1C205.502 23.2 204.902 23.8 204.702 24.1H204.602V19.9C204.602 19.8 204.502 19.7 204.402 19.7H199.802C199.702 19.7 199.602 19.8 199.602 19.9V38.2999C199.602 38.3999 199.702 38.5 199.802 38.5H204.402C204.502 38.5 204.602 38.3999 204.602 38.2999V31.2999C204.602 31.0999 204.702 30.8 204.902 30.7L210.502 25.1C210.702 24.9 211.002 24.9 211.202 25C211.302 25.1 211.402 25.2 211.402 25.4V38.2999C211.402 38.3999 211.502 38.5 211.602 38.5H216.202C216.302 38.5 216.402 38.3999 216.402 38.2999V31.2H216.202Z" fill="var(--fill-0, white)"/>
<path id="Vector_7" d="M149.9 12.1H145.3C145.2 12.1 145.1 12.2 145.1 12.3V20.4C145.1 20.4 145 20.5 145 20.4C143.4 19.4 141.4 19 139.4 19.1C134.6 19.5 130.7 23.3 130.4 28.1C130 33.8 134.5 38.6 140.2 38.6C142 38.6 143.6 38.1 145.1 37.3H145.2V37.9C145.2 38 145.3 38.1 145.4 38.1H150C150.1 38.1 150.2 38 150.2 37.9V12.3C150.1 12.2 150 12.1 149.9 12.1ZM144.8 29.3C144.7 31.7 142.7 33.6 140.3 33.8C137.4 34 135 31.6 135.2 28.7C135.3 26.3 137.3 24.4 139.7 24.2C142.6 24 145 26.4 144.8 29.3Z" fill="var(--fill-0, white)"/>
<path id="Vector_8" d="M187.601 19.2C182.201 19.2 177.801 23.6 177.801 29C177.801 34.4 182.201 38.8 187.601 38.8C193.001 38.8 197.401 34.4 197.401 29C197.401 23.6 193.001 19.2 187.601 19.2ZM187.601 33.8C185.001 33.8 182.801 31.7 182.801 29C182.801 26.3 184.901 24.2 187.601 24.2C190.301 24.2 192.401 26.3 192.401 29C192.401 31.7 190.201 33.8 187.601 33.8Z" fill="var(--fill-0, white)"/>
<path id="Vector_9" d="M169.4 24.2C170.9 24.2 172.3 24.9 173.2 26.1C173.3 26.2 173.4 26.2 173.5 26.2L176.7 23C176.8 22.9 176.8 22.8 176.8 22.6C175 20 171.8 19.2 169.3 19.2C163.9 19.2 159.5 23.6 159.5 29C159.5 34.4 163.9 38.7999 169.3 38.7999C172.5 38.7999 175 37.6 176.7 35.4C176.8 35.3 176.8 35.0999 176.6 35.0999L173.5 31.7999C173.4 31.6999 173.3 31.8 173.2 31.9C172.3 33.1 170.8 33.9 169.3 33.9C166.7 33.9 164.5 31.8 164.5 29.1C164.6 26.3 166.7 24.2 169.4 24.2Z" fill="var(--fill-0, white)"/>
<g id="Group_2">
<path id="Vector_10" d="M155.298 32C154.398 32 153.498 32.3 152.898 33C152.298 33.6 151.898 34.5 151.898 35.4C151.898 37.3 153.398 38.8 155.298 38.8C156.198 38.8 156.998 38.5 157.698 37.8C158.298 37.2 158.698 36.3 158.698 35.4C158.698 34.5 158.298 33.6 157.698 33C157.098 32.3 156.198 32 155.298 32Z" fill="var(--fill-0, white)"/>
</g>
<g id="Group_3">
<path id="Vector_11" d="M74.9008 21.2999C73.5008 21.2999 72.3008 22.3999 72.3008 23.8999V38.2999C72.3008 38.3999 72.4008 38.4999 72.5008 38.4999H77.3008C77.4008 38.4999 77.5008 38.3999 77.5008 38.2999V23.8999C77.4008 22.3999 76.3008 21.2999 74.9008 21.2999Z" fill="var(--fill-0, white)"/>
<path id="Vector_12" d="M74.9 19.5C76.7778 19.5 78.3 17.9777 78.3 16.1C78.3 14.2222 76.7778 12.7 74.9 12.7C73.0222 12.7 71.5 14.2222 71.5 16.1C71.5 17.9777 73.0222 19.5 74.9 19.5Z" fill="var(--fill-0, white)"/>
</g>
<path id="Vector_13" d="M110.802 23.5999V19.6999C110.802 19.5999 110.702 19.4999 110.602 19.4999H106.602C106.502 19.4999 106.402 19.3999 106.402 19.2999V12.9999C106.402 12.8999 106.302 12.7999 106.202 12.7999H101.602C101.502 12.7999 101.402 12.8999 101.402 12.9999V19.1999C101.402 19.2999 101.302 19.3999 101.202 19.3999H99.3016C99.2016 19.3999 99.1016 19.4999 99.1016 19.5999V23.4999C99.1016 23.5999 99.2016 23.6999 99.3016 23.6999H101.202C101.302 23.6999 101.402 23.7999 101.402 23.8999V32.4999C101.402 36.2999 104.002 38.2999 106.902 38.2999H110.102C110.202 38.2999 110.302 38.1999 110.302 38.0999V34.5999C110.302 34.4999 110.202 34.3999 110.102 34.3999H109.102C107.902 34.3999 106.502 34.2999 106.502 32.0999V24.0999C106.502 23.9999 106.602 23.8999 106.702 23.8999H110.702C110.702 23.8999 110.802 23.6999 110.802 23.5999Z" fill="var(--fill-0, white)"/>
<path id="Vector_14" d="M126.003 32.8C125.903 32.7 125.803 32.7 125.803 32.8C124.403 34.1 122.203 34.5 120.303 34.1C119.703 34 119.203 33.8 118.703 33.4C118.303 33.1 117.903 32.6 117.603 32.1C117.603 32.1 117.603 32 117.703 32C118.103 32 118.503 32 119.003 32C122.103 31.8 125.703 30.9 127.803 28.5C131.303 24.7 127.603 19.9 123.403 19.2C119.103 18.5 114.103 20.8 112.403 25C112.303 25.1 112.303 25.2 112.303 25.4C111.003 29.4 112.403 33.9 115.603 36.6C119.303 39.7 125.803 39.4 129.403 36.2C129.503 36.2 129.503 36 129.403 36L126.003 32.8ZM118.303 25.1C119.103 24.2 120.303 23.7 121.803 23.6C123.803 23.5 124.003 24.4 124.103 24.7C124.203 25.1 124.003 25.6 123.603 26C123.103 26.5 122.303 27 121.303 27.3C120.303 27.7 119.103 27.9 117.803 28C117.503 28 117.303 28 117.103 28C117.103 28 117.003 28 117.003 27.9C117.103 26.8 117.603 25.9 118.303 25.1Z" fill="var(--fill-0, white)"/>
</g>
<g id="Group_4">
<path id="Vector_15" d="M28.9984 12.7C28.8984 12.7 28.8984 12.6 28.7984 12.6C28.6984 12.5 28.4984 12.5 28.2984 12.4C27.7984 12.2 27.1984 12.1 26.4984 12.1H6.99844C6.09844 12.1 5.29844 12.9 5.29844 13.8V20.6C5.29844 21.6 6.09844 22.3 6.99844 22.3H14.0984L5.79844 30.6C5.09844 31.3 5.09844 32.4 5.79844 33L10.5984 37.8C10.8984 38.1 11.3984 38.3 11.7984 38.3C12.1984 38.3 12.6984 38.1 12.9984 37.8L21.2984 29.5V36.5C21.2984 37.5 22.0984 38.2 22.9984 38.2H29.7984C30.7984 38.2 31.4984 37.4 31.4984 36.5V17.2C31.6984 15.3 30.5984 13.6 28.9984 12.7ZM21.3984 17.2V27.5L12.0984 36.8C11.9984 36.8 11.9984 36.9 11.8984 36.9C11.7984 36.9 11.7984 36.9 11.6984 36.8L6.89844 32C6.79844 31.9 6.79844 31.8 6.89844 31.7L16.1984 22.4L17.6984 20.9L21.3984 17.2ZM15.5984 20.9H6.99844C6.89844 20.9 6.79844 20.8 6.79844 20.7V13.9C6.79844 13.8 6.89844 13.7 6.99844 13.7H22.8984L15.5984 20.9ZM30.1984 17.2V20.8V36.7C30.1984 36.8 30.0984 36.9 29.9984 36.9H23.1984C23.0984 36.9 22.9984 36.8 22.9984 36.7V28.2V26V17.2C22.9984 16.6 23.1984 16 23.3984 15.5C23.5984 15.2 23.7984 14.9 23.9984 14.7C24.0984 14.6 24.1984 14.5 24.2984 14.5C24.4984 14.4 24.6984 14.2 24.8984 14.1C25.3984 13.8 25.9984 13.7 26.5984 13.7C26.6984 13.7 26.7984 13.7 26.9984 13.7H27.0984C27.1984 13.7 27.1984 13.7 27.2984 13.7H27.3984C27.4984 13.7 27.4984 13.7 27.5984 13.7H27.6984C27.7984 13.7 27.7984 13.7 27.8984 13.8H27.9984C28.0984 13.8 28.0984 13.9 28.1984 13.9C28.1984 13.9 28.2984 13.9 28.2984 14C28.3984 14 28.3984 14.1 28.4984 14.1C28.4984 14.1 28.5984 14.1 28.5984 14.2C28.6984 14.3 28.7984 14.3 28.8984 14.4C28.9984 14.5 29.0984 14.5 29.0984 14.6C29.0984 14.6 29.0984 14.6 29.1984 14.7C29.1984 14.8 29.2984 14.8 29.3984 14.9C29.3984 14.9 29.3984 14.9 29.4984 15C29.5984 15.2 29.6984 15.3 29.8984 15.5V15.6C29.8984 15.7 29.9984 15.7 29.9984 15.8V15.9C29.9984 16 30.0984 16.1 30.0984 16.2C30.0984 16.3 30.1984 16.4 30.1984 16.5V16.6C30.1984 16.7 30.1984 16.8 30.1984 16.8V16.9C30.1984 17 30.1984 17.1 30.1984 17.2Z" fill="var(--fill-0, black)"/>
</g>
<path id="Vector_16" d="M26.7 13.5C24.7 13.5 23 15.1 23 17.2V36.7C23 36.8 23.1 36.9 23.2 36.9H30C30.1 36.9 30.2 36.8 30.2 36.7V17.2C30.4 15.2 28.7 13.5 26.7 13.5Z" fill="var(--fill-0, #EB5CC1)"/>
<path id="Vector_17" d="M26.4984 15.7C25.5984 15.7 24.8984 16.4 24.8984 17.3C24.8984 18.2 25.5984 19 26.4984 19C27.3984 19 28.0984 18.3 28.0984 17.4C28.1984 16.4 27.3984 15.7 26.4984 15.7Z" fill="var(--fill-0, black)"/>
</g>
</svg>
