<svg preserveAspectRatio="none" width="100%" height="100%" overflow="visible" style="display: block;" viewBox="0 0 40 40" fill="none" xmlns="http://www.w3.org/2000/svg">
<g id="Icon">
<path id="Vector" d="M26.6667 35V31.6667C26.6667 29.8986 25.9643 28.2029 24.714 26.9526C23.4638 25.7024 21.7681 25 20 25H10C8.23189 25 6.5362 25.7024 5.28596 26.9526C4.03571 28.2029 3.33333 29.8986 3.33333 31.6667V35" stroke="var(--stroke-0, #0085FF)" stroke-width="2.5" stroke-linecap="round" stroke-linejoin="round"/>
<path id="Vector_2" d="M15 18.3333C18.6819 18.3333 21.6667 15.3486 21.6667 11.6667C21.6667 7.98477 18.6819 5 15 5C11.3181 5 8.33333 7.98477 8.33333 11.6667C8.33333 15.3486 11.3181 18.3333 15 18.3333Z" stroke="var(--stroke-0, #0085FF)" stroke-width="2.5" stroke-linecap="round" stroke-linejoin="round"/>
<path id="Vector_3" d="M36.6667 35V31.6667C36.6656 30.1895 36.1739 28.7546 35.2689 27.5872C34.364 26.4198 33.0969 25.5859 31.6667 25.2167" stroke="var(--stroke-0, #0085FF)" stroke-width="2.5" stroke-linecap="round" stroke-linejoin="round"/>
<path id="Vector_4" d="M26.6667 5.21667C28.1007 5.58384 29.3717 6.41784 30.2794 7.58718C31.1871 8.75653 31.6797 10.1947 31.6797 11.675C31.6797 13.1553 31.1871 14.5935 30.2794 15.7628C29.3717 16.9322 28.1007 17.7662 26.6667 18.1333" stroke="var(--stroke-0, #0085FF)" stroke-width="2.5" stroke-linecap="round" stroke-linejoin="round"/>
</g>
</svg>
