<svg preserveAspectRatio="none" width="100%" height="100%" overflow="visible" style="display: block;" viewBox="0 0 40 40" fill="none" xmlns="http://www.w3.org/2000/svg">
<g id="Icon">
<path id="Vector" d="M22.5 11.6667C22.9602 11.6667 23.3333 11.2936 23.3333 10.8333C23.3333 10.3731 22.9602 10 22.5 10C22.0398 10 21.6667 10.3731 21.6667 10.8333C21.6667 11.2936 22.0398 11.6667 22.5 11.6667Z" fill="var(--fill-0, #0085FF)" stroke="var(--stroke-0, #0085FF)" stroke-width="2.5" stroke-linecap="round" stroke-linejoin="round"/>
<path id="Vector_2" d="M29.1667 18.3333C29.6269 18.3333 30 17.9602 30 17.5C30 17.0398 29.6269 16.6667 29.1667 16.6667C28.7064 16.6667 28.3333 17.0398 28.3333 17.5C28.3333 17.9602 28.7064 18.3333 29.1667 18.3333Z" fill="var(--fill-0, #0085FF)" stroke="var(--stroke-0, #0085FF)" stroke-width="2.5" stroke-linecap="round" stroke-linejoin="round"/>
<path id="Vector_3" d="M14.1667 13.3333C14.6269 13.3333 15 12.9602 15 12.5C15 12.0398 14.6269 11.6667 14.1667 11.6667C13.7064 11.6667 13.3333 12.0398 13.3333 12.5C13.3333 12.9602 13.7064 13.3333 14.1667 13.3333Z" fill="var(--fill-0, #0085FF)" stroke="var(--stroke-0, #0085FF)" stroke-width="2.5" stroke-linecap="round" stroke-linejoin="round"/>
<path id="Vector_4" d="M10.8333 21.6667C11.2936 21.6667 11.6667 21.2936 11.6667 20.8333C11.6667 20.3731 11.2936 20 10.8333 20C10.3731 20 10 20.3731 10 20.8333C10 21.2936 10.3731 21.6667 10.8333 21.6667Z" fill="var(--fill-0, #0085FF)" stroke="var(--stroke-0, #0085FF)" stroke-width="2.5" stroke-linecap="round" stroke-linejoin="round"/>
<path id="Vector_5" d="M20 3.33333C10.8333 3.33333 3.33333 10.8333 3.33333 20C3.33333 29.1667 10.8333 36.6667 20 36.6667C21.5433 36.6667 22.7467 35.4233 22.7467 33.8533C22.7467 33.125 22.4467 32.4617 22.0183 31.9783C21.535 31.4967 21.2883 30.8917 21.2883 30.1033C21.282 29.7365 21.3496 29.3722 21.4871 29.032C21.6245 28.6919 21.8291 28.3829 22.0885 28.1235C22.3479 27.8641 22.6569 27.6595 22.997 27.5221C23.3372 27.3846 23.7015 27.317 24.0683 27.3233H27.395C32.48 27.3233 36.6533 23.1517 36.6533 18.0667C36.6083 10.02 29.1017 3.33333 20 3.33333Z" stroke="var(--stroke-0, #0085FF)" stroke-width="2.5" stroke-linecap="round" stroke-linejoin="round"/>
</g>
</svg>
