<svg preserveAspectRatio="none" width="100%" height="100%" overflow="visible" style="display: block;" viewBox="0 0 20 20" fill="none" xmlns="http://www.w3.org/2000/svg">
<g id="Icon" clip-path="url(#clip0_0_35)">
<path id="Vector" d="M10 9C9.09417 7.23833 6.62833 3.95583 4.335 2.3375C2.13833 0.786667 1.30083 1.055 0.751667 1.30417C0.115834 1.59 2.38419e-07 2.56667 2.38419e-07 3.14C2.38419e-07 3.715 0.315 7.84833 0.52 8.53917C1.19917 10.8192 3.61417 11.5892 5.83917 11.3425C5.9525 11.3258 6.06833 11.31 6.185 11.2958C6.07 11.3142 5.955 11.3292 5.83917 11.3425C2.57917 11.8258 -0.316667 13.0133 3.48083 17.2408C7.65833 21.5658 9.20583 16.3133 10 13.6508C10.7942 16.3133 11.7083 21.3767 16.4442 17.2408C20 13.6508 17.4208 11.8258 14.1608 11.3425C14.0452 11.3297 13.9299 11.3141 13.815 11.2958C13.9317 11.31 14.0475 11.3258 14.1608 11.3425C16.3858 11.59 18.8008 10.8192 19.48 8.53917C19.685 7.84917 20 3.71417 20 3.14083C20 2.56583 19.8842 1.59 19.2483 1.3025C18.6992 1.05417 17.8617 0.785833 15.665 2.33583C13.3717 3.95667 10.9058 7.23917 10 9Z" fill="var(--fill-0, white)"/>
</g>
<defs>
<clipPath id="clip0_0_35">
<rect width="20" height="20" fill="white"/>
</clipPath>
</defs>
</svg>
